<svg id="Group_4" data-name="Group 4" xmlns="http://www.w3.org/2000/svg" xmlns:xlink="http://www.w3.org/1999/xlink" width="71.367" height="87.229" viewBox="0 0 71.367 87.229">
  <defs>
    <clipPath id="clip-path">
      <rect id="Rectangle_12" data-name="Rectangle 12" width="71.367" height="87.228" fill="none"/>
    </clipPath>
  </defs>
  <g id="Group_3" data-name="Group 3" transform="translate(0 0)" clip-path="url(#clip-path)">
    <path id="Path_9" data-name="Path 9" d="M71.368,71.367H0V0H53.114A18.275,18.275,0,0,1,71.368,18.253ZM1.173,70.194H70.194V18.253a17.1,17.1,0,0,0-17.08-17.08H1.173Z" transform="translate(0 0)" fill="#313131"/>
    <path id="Path_10" data-name="Path 10" d="M54.222,61.825c-1.394-.063-2.407-.127-4.751-.127s-3.358.064-4.752.127v-.316c1.9-.38,2.725-.7,2.725-5.765V41.933c0-7.855-3.865-9.376-7.729-9.376a14.087,14.087,0,0,0-7.665,2.6V55.743c0,5.069.823,5.385,2.723,5.765v.316c-1.393-.063-2.407-.127-4.751-.127s-3.358.064-4.751.127v-.316c1.9-.38,2.724-.7,2.724-5.765V21.49c0-2.281-.064-3.5-1.964-4.008v-.316a18.989,18.989,0,0,0,6.018-1.394V33.825A17.563,17.563,0,0,1,41.3,31.291c4.246,0,10.2,1.266,10.2,10.326V55.743c0,5.069.823,5.385,2.723,5.765Z" transform="translate(-4.063 -2.536)" fill="#313131"/>
    <path id="Path_11" data-name="Path 11" d="M10.3,101.912c-.462-.021-.8-.042-1.576-.042s-1.114.021-1.577.042v-.1c.631-.126.9-.232.9-1.913V95.908c0-2.606-1.282-3.111-2.564-3.111a4.677,4.677,0,0,0-2.544.862v6.235c0,1.681.274,1.787.9,1.913v.1c-.462-.021-.8-.042-1.576-.042s-1.114.021-1.577.042v-.1c.631-.126.9-.232.9-1.913V94.08c0-.756-.021-.967-.651-1.135v-.1a6.287,6.287,0,0,0,2-.462v.841a5.834,5.834,0,0,1,3.069-.841c1.408,0,3.384.42,3.384,3.426v4.092c0,1.681.274,1.787.9,1.913Z" transform="translate(-0.112 -14.852)" fill="#313131"/>
    <path id="Path_12" data-name="Path 12" d="M24.692,101.008a1.874,1.874,0,0,1-1.513,1.072A1.179,1.179,0,0,1,22,100.756a4.529,4.529,0,0,1-3.132,1.324,2.391,2.391,0,0,1-2.69-2.311c0-1.472,1.3-2.67,3.384-2.67A4.476,4.476,0,0,1,22,97.793V94.837c0-1.324-.5-2.081-1.913-2.081A2.5,2.5,0,0,0,17.651,95.4H16.579a3.577,3.577,0,0,1,3.679-3.027c1.513,0,3.089.483,3.089,2.733v4.932c0,.862.147,1.177.609,1.177a.943.943,0,0,0,.694-.315ZM22,98.171a3.026,3.026,0,0,0-2.018-.672,2.148,2.148,0,0,0-2.291,2.143,1.791,1.791,0,0,0,1.913,1.85,3.171,3.171,0,0,0,2.4-1.156Z" transform="translate(-2.601 -14.852)" fill="#313131"/>
    <path id="Path_13" data-name="Path 13" d="M35.494,99.912a2.476,2.476,0,0,1-2.417,1.661c-1.114,0-2.165-.232-2.165-2.5V93.256c0-.882-.168-1.009-1.03-1.156V92c1.345,0,2.228-1.261,2.565-2.774h.126a17.159,17.159,0,0,0-.316,2.754h1.724c1.009,0,1.345,0,1.66-.525l.127.126a6.307,6.307,0,0,0-.862,1.492h-.169a.753.753,0,0,0,.043-.231c0-.358-.295-.441-1.01-.441H32.257v6.634c0,1.451.42,1.955,1.492,1.955a1.581,1.581,0,0,0,1.64-1.135Z" transform="translate(-4.804 -14.344)" fill="#313131"/>
    <path id="Path_14" data-name="Path 14" d="M50.105,101.008a1.757,1.757,0,0,1-1.513,1.072c-.8,0-1.177-.567-1.177-1.934a3.883,3.883,0,0,1-3.384,1.934c-1.934,0-3.174-1.072-3.174-3.636V94.08c0-.757-.168-.989-1.03-1.135v-.1a7.108,7.108,0,0,0,2.375-.462v5.962c0,2.249.715,3.174,2.354,3.174a3.016,3.016,0,0,0,2.858-1.871V94.08c0-.757-.063-.989-.925-1.135v-.1a6.52,6.52,0,0,0,2.27-.462v7.5c0,.652,0,1.387.546,1.387a1.045,1.045,0,0,0,.757-.357Z" transform="translate(-6.403 -14.852)" fill="#313131"/>
    <path id="Path_15" data-name="Path 15" d="M59.213,101.912c-.462-.021-.8-.042-1.576-.042s-1.114.021-1.577.042v-.1c.631-.126.9-.232.9-1.913V94.08c0-.756-.021-.967-.651-1.135v-.1a6.287,6.287,0,0,0,2-.462v.968a3.289,3.289,0,0,1,2.1-.968c1.094,0,1.345.778,1.345,1.745H60.411c0-.777-.294-1.093-.777-1.093-.337,0-.757.147-1.324.8v6.067c0,1.681.273,1.787.9,1.913Z" transform="translate(-9.013 -14.852)" fill="#313131"/>
    <path id="Path_16" data-name="Path 16" d="M75.068,101.008a1.874,1.874,0,0,1-1.513,1.072,1.179,1.179,0,0,1-1.177-1.324,4.529,4.529,0,0,1-3.132,1.324,2.391,2.391,0,0,1-2.69-2.311c0-1.472,1.3-2.67,3.384-2.67a4.476,4.476,0,0,1,2.438.693V94.837c0-1.324-.5-2.081-1.913-2.081A2.5,2.5,0,0,0,68.027,95.4H66.955a3.576,3.576,0,0,1,3.677-3.027c1.513,0,3.09.483,3.09,2.733v4.932c0,.862.147,1.177.609,1.177a.943.943,0,0,0,.694-.315Zm-2.691-2.837A3.026,3.026,0,0,0,70.36,97.5a2.148,2.148,0,0,0-2.291,2.143,1.791,1.791,0,0,0,1.913,1.85,3.171,3.171,0,0,0,2.4-1.156Z" transform="translate(-10.7 -14.852)" fill="#313131"/>
    <path id="Path_17" data-name="Path 17" d="M83.736,101.232c-.462-.021-.8-.042-1.576-.042s-1.114.021-1.577.042v-.1c.631-.126.9-.232.9-1.913V89.259c0-.757-.021-.38-.651-.549v-.1a6.31,6.31,0,0,0,2-.463V99.214c0,1.681.274,1.787.9,1.913Z" transform="translate(-12.956 -14.171)" fill="#313131"/>
  </g>
</svg>
