<svg xmlns="http://www.w3.org/2000/svg" xmlns:xlink="http://www.w3.org/1999/xlink" width="174.334" height="43.432" viewBox="0 0 174.334 43.432">
  <defs>
    <clipPath id="clip-path">
      <rect id="Rectangle_9" data-name="Rectangle 9" width="174.334" height="43.432" fill="none"/>
    </clipPath>
  </defs>
  <g id="Group_1" data-name="Group 1" clip-path="url(#clip-path)">
    <path id="Path_1" data-name="Path 1" d="M111.707,35.6a2.142,2.142,0,0,0-2.473-1.592c-1.337.088-3.035.917-5.342,2.607-1.723,1.241-2.984,2.1-3.964,2.692a3.4,3.4,0,0,1-2.349.669,1.044,1.044,0,0,1-.65-.547,4.96,4.96,0,0,1-.378-2.437,16.656,16.656,0,0,1,.356-2.539,76.972,76.972,0,0,0,7.232-6.889c2.352-2.7,3.627-4.973,3.685-6.574a2.332,2.332,0,0,0-.566-1.771,1.885,1.885,0,0,0-1.421-.544c-4.031.057-8.511,9.173-9.8,15.336-2.411,2.274-7.012,5.535-8.889,5.561a.563.563,0,0,1-.449-.147,1.347,1.347,0,0,1-.216-.964,13.532,13.532,0,0,1,1.73-5.042.348.348,0,0,0,.049-.367.5.5,0,0,0-.456-.238.6.6,0,0,0-.549.254l-.4.628a2.642,2.642,0,0,0-1.4-.4h-.046a2.731,2.731,0,0,0-2.048,1.041,38.53,38.53,0,0,1-7.726,5.21,1.909,1.909,0,0,1-1.7.107,1.043,1.043,0,0,1-.332-.967A6.4,6.4,0,0,1,73.991,37a6.874,6.874,0,0,0,.347-1.382c.053-.494-.167-.764-.8-1.161a3.264,3.264,0,0,0,1.1-1.979.783.783,0,0,0-.313-.737,1.217,1.217,0,0,0-1.123-.025,2.111,2.111,0,0,0-1.191,1.842,1.463,1.463,0,0,0,.323.948,30.549,30.549,0,0,1-7.3,4.989,1.557,1.557,0,0,1-1.45.08,1.129,1.129,0,0,1-.387-.989,16.36,16.36,0,0,1,1.277-4.572.411.411,0,0,0-.151-.576.737.737,0,0,0-.892.287c-1.224,2.47-2.793,4.2-3.435,4.21-.079,0-.081-.019-.09-.03-.129-.146-.055-.679-.019-.934.011-.073.019-.139.023-.172a15.719,15.719,0,0,1,.674-2.061.374.374,0,0,0-.147-.524.623.623,0,0,0-.813.183c-.023.03-.043.07-.065.1-.014.01-.031.014-.043.027a30.009,30.009,0,0,1-6.694,4.92c-1.075.513-1.753.521-2.01.031a3.431,3.431,0,0,1-.185-1.456c.073-2.2,1.329-6.419,3-10.082a59.324,59.324,0,0,0,5.961.282c1.054-.015,4.5-.156,4.535-1.319a.4.4,0,0,0-.311-.461.352.352,0,0,0-.421.2c-.2.538-1.457.827-3.74.859-1.5.019-3.361-.066-5.675-.267.325-.684.611-1.229.807-1.606a3.927,3.927,0,0,0,.355-.751.384.384,0,0,0-.1-.371.4.4,0,0,0-.381-.089c-.147.023-.49.079-1.681,2.744-1.144-.1-4.172-.262-5.22.662a1.071,1.071,0,0,0-.389.8.458.458,0,0,0,.134.329.4.4,0,0,0,.3.119.429.429,0,0,0,.423-.453.416.416,0,0,1,.162-.322c.576-.51,2.5-.585,4.255-.432a42.731,42.731,0,0,0-2.195,6.382c-2.269,2.165-6.739,5.349-8.547,5.374a.556.556,0,0,1-.419-.137,1.273,1.273,0,0,1-.2-.909,12.857,12.857,0,0,1,1.647-4.794.34.34,0,0,0,.047-.361.485.485,0,0,0-.445-.232.568.568,0,0,0-.53.247l-.379.589a2.535,2.535,0,0,0-1.334-.378h-.041a2.95,2.95,0,0,0-2.526,1.85,30.237,30.237,0,0,1-6.265,4.265c-.552.222-.967.254-1.2.091-.211-.146-.313-.469-.3-.952a13.67,13.67,0,0,1,.32-2.054,13.679,13.679,0,0,0,.306-1.953c-.021-1.344-.7-1.488-.976-1.473-1.008.015-2.712,1.788-3.949,3.314.3-1.038.477-2.137,0-2.786a1.526,1.526,0,0,0-1.316-.554h-.041c-1.279.018-3.38,1.08-4.915,1.855l-.315.158c-2.588,1.359-5.255,2.621-7.252,2.648a2.372,2.372,0,0,1-1.7-.5,1.261,1.261,0,0,1-.33-.964.381.381,0,0,0-.218-.347.611.611,0,0,0-.609.071.477.477,0,0,0-.207.462c.158,1.5,1.636,2.029,3,2.029h.079c2.52-.034,5.625-1.636,7.886-2.8l.427-.207A13.912,13.912,0,0,1,24.3,34.2a.729.729,0,0,1,.554.2.821.821,0,0,1,.111.685,12.262,12.262,0,0,1-.738,2.429,11.309,11.309,0,0,0-.521,1.577.476.476,0,0,0,.34.526.617.617,0,0,0,.714-.241c1.355-2.277,3.972-5.089,4.713-5.116a6.279,6.279,0,0,1-.228,2.085,16.8,16.8,0,0,0-.344,2.287,2,2,0,0,0,.717,1.86,1.683,1.683,0,0,0,.988.288,3.118,3.118,0,0,0,1.159-.251,29.438,29.438,0,0,0,5.544-3.658c-.01.1-.029.2-.031.288a1.832,1.832,0,0,0,.352,1.312.931.931,0,0,0,.637.259c.605-.008,1.442-.878,2.293-1.9a9.43,9.43,0,0,0-.208,1.538c-.027,1.335.443,2.037,1.4,2.085h.062c1.845,0,6.01-2.818,8.309-4.834a14.383,14.383,0,0,0-.288,2.2,3.646,3.646,0,0,0,.355,2.061,1.42,1.42,0,0,0,1.277.673,3.753,3.753,0,0,0,1.584-.435,30.432,30.432,0,0,0,6-4.183,6.059,6.059,0,0,0-.12,1.164c-.056,1.044.234,1.6.867,1.641.708.034,1.507-.5,2.508-1.675a6.37,6.37,0,0,0-.1,1.152,2.145,2.145,0,0,0,.79,2,1.843,1.843,0,0,0,1.063.306,3.168,3.168,0,0,0,1.208-.264,32.238,32.238,0,0,0,7.664-5.218c.472.348.415.541.232,1.1l-.082.257c-.035.146-.082.309-.131.484a7.825,7.825,0,0,0-.333,1.585,2,2,0,0,0,.754,1.876,1.881,1.881,0,0,0,1.08.306,3.763,3.763,0,0,0,1.471-.344,35.283,35.283,0,0,0,6.522-4.149,3.771,3.771,0,0,0-.121.81,1.913,1.913,0,0,0,.367,1.37.874.874,0,0,0,.66.27c.638-.009,1.528-.942,2.43-2.025a9.965,9.965,0,0,0-.23,1.659c-.029,1.414.448,2.126,1.462,2.179h.063c1.94,0,6.326-2.974,8.737-5.09a13.37,13.37,0,0,0-.126,1.411A5.552,5.552,0,0,0,96.3,40a1.877,1.877,0,0,0,1.569.747,4.943,4.943,0,0,0,2.3-.741c1.1-.66,2.492-1.6,4.146-2.792,1.56-1.12,3.535-2.42,5-2.521a1.5,1.5,0,0,1,1.207.324.908.908,0,0,1,.255.753.4.4,0,0,0,.219.367.5.5,0,0,0,.51-.046.5.5,0,0,0,.208-.475ZM97.126,33.274c1.553-5.844,5.7-13.838,8.769-13.838h.056a1.024,1.024,0,0,1,.761.314,1.652,1.652,0,0,1,.323,1.229c-.021,1.365-1.25,3.515-3.464,6.056a62.46,62.46,0,0,1-6.445,6.238M83.4,37.813a.928.928,0,0,1-.191-.568c.069-1.357,1.148-3.03,2.309-3.046h.013a1.549,1.549,0,0,1,.8.271C85.074,36.353,83.8,37.8,83.4,37.813m-9.56-5.339a3.177,3.177,0,0,1-.911,1.446.452.452,0,0,1-.051-.188,1.674,1.674,0,0,1,.576-1.147.946.946,0,0,1,.379-.25.244.244,0,0,1,.009.119ZM39.214,35.231a.462.462,0,0,0,.118-.249,1.613,1.613,0,0,1,1.007-.454h.013a1.464,1.464,0,0,1,.745.25c-1.194,1.784-2.4,3.16-2.769,3.17a.885.885,0,0,1-.176-.53,3.756,3.756,0,0,1,.606-1.762c.172-.155.331-.3.457-.425m72.27.411Z" transform="translate(1.24 2.65)" fill="#767676"/>
    <path id="Path_2" data-name="Path 2" d="M10.169,24.717h3.354L5.055,14.524l8.368-8.378h-3.3L2.5,13.964V6.146H0V24.717H2.5v-7.73l.783-.785Z" transform="translate(0 0.872)" fill="#1a1311"/>
    <path id="Path_3" data-name="Path 3" d="M17.652,6.146V18.155a6.688,6.688,0,0,0,6.821,6.906,6.759,6.759,0,0,0,5.021-2.1,6.675,6.675,0,0,0,1.812-4.8V6.146h-2.5V17.369a6.361,6.361,0,0,1-.831,3.676,4.1,4.1,0,0,1-3.507,1.7,4.092,4.092,0,0,1-3.494-1.7,6.471,6.471,0,0,1-.831-3.676V6.146Z" transform="translate(2.506 0.872)" fill="#1a1311"/>
    <path id="Path_4" data-name="Path 4" d="M45.673,24.717h3.046L42.9,16.711l.272-.058a4.985,4.985,0,0,0,2.938-1.788,5.225,5.225,0,0,0,1.112-3.345,5.033,5.033,0,0,0-1.775-4.007c-1.073-.907-2.858-1.367-5.3-1.367H36.979V24.717h2.5v-7.75h.791l.054.078Zm-5.11-9.877H39.474V8.469h1.2c2.74,0,4.129,1.039,4.129,3.088,0,2.179-1.426,3.284-4.24,3.284" transform="translate(5.249 0.872)" fill="#1a1311"/>
    <path id="Path_5" data-name="Path 5" d="M66.6,24.834h2.728L60.57,5.327,51.489,24.834h2.677l2.109-4.6h8.341Zm-2.994-6.922H57.3l3.228-7.064Z" transform="translate(7.309 0.756)" fill="#1a1311"/>
    <path id="Path_6" data-name="Path 6" d="M71.863,19.861A6.489,6.489,0,0,0,73.755,23.7,5.668,5.668,0,0,0,77.7,25.107a5.828,5.828,0,0,0,4.226-1.665,5.637,5.637,0,0,0,1.688-4.188,4.979,4.979,0,0,0-1.028-3.18,7.934,7.934,0,0,0-3.3-2.219L77.4,13.082c-1.442-.592-2.173-1.4-2.173-2.4a2.276,2.276,0,0,1,.85-1.807,3.475,3.475,0,0,1,3.771-.3,3.854,3.854,0,0,1,1.2,1.376L83.06,8.767a5.475,5.475,0,0,0-4.866-2.943,5.749,5.749,0,0,0-3.94,1.4,4.406,4.406,0,0,0-1.569,3.433c0,2.02,1.27,3.581,3.776,4.64l1.826.761a8.191,8.191,0,0,1,1.256.66,4,4,0,0,1,.879.758,2.749,2.749,0,0,1,.512.906,3.373,3.373,0,0,1,.163,1.069,3.288,3.288,0,0,1-.935,2.4,3.445,3.445,0,0,1-5.071-.353A4.692,4.692,0,0,1,74.4,19.3Z" transform="translate(10.201 0.827)" fill="#1a1311"/>
    <path id="Path_7" data-name="Path 7" d="M99.594,24.717h2.5V6.146h-2.5v7.407H91.065V6.146h-2.5V24.717h2.5V15.875h8.529Z" transform="translate(12.572 0.872)" fill="#1a1311"/>
    <rect id="Rectangle_8" data-name="Rectangle 8" width="2.495" height="18.571" transform="translate(123.077 7.018)" fill="#1a1311"/>
    <path id="Path_8" data-name="Path 8" d="M137.172,0c-27.491.462-27.487,40.775,0,41.234,27.491-.464,27.487-40.775,0-41.234m3.186,9.9a2.951,2.951,0,1,1-1.374,1.792A2.927,2.927,0,0,1,140.358,9.9m-7.99-.369a2.95,2.95,0,1,1-2.951,2.951,2.954,2.954,0,0,1,2.951-2.951m1.521,21.9a2.95,2.95,0,1,1,1.08-4.031,2.953,2.953,0,0,1-1.08,4.031m7.991.369a2.951,2.951,0,1,1,2.951-2.951A2.954,2.954,0,0,1,141.88,31.8M147.2,15.533l-.083-.088-8.994,5.191,8.994,5.192.083-.088a2.648,2.648,0,1,1-.62,1.073l.034-.116-8.993-5.192V31.89l.119.029a2.648,2.648,0,1,1-1.24,0l.119-.029V21.505l-8.888,5.132-.106.061.035.116a2.649,2.649,0,1,1-.62-1.073l.083.088,8.993-5.192-8.993-5.191-.083.088a2.648,2.648,0,1,1,.62-1.073l-.035.116,8.994,5.192V9.383l-.119-.029a2.648,2.648,0,1,1,1.24,0l-.119.029V19.768l8.888-5.132.105-.061-.034-.116a2.649,2.649,0,1,1,.62,1.073m1.941,6.579a2.95,2.95,0,1,1-1.08-4.03,2.952,2.952,0,0,1,1.08,4.03m-24.043-2.9a2.951,2.951,0,1,1,1.08,4.031,2.957,2.957,0,0,1-1.08-4.031" transform="translate(16.544 0)" fill="#005c56"/>
  </g>
</svg>
