<svg id="_838_ma_h" data-name="838_ma_h" xmlns="http://www.w3.org/2000/svg" width="35" height="35" viewBox="0 0 35 35">
  <rect id="Rectangle_13" data-name="Rectangle 13" width="35" height="35" fill="rgba(0,0,0,0)"/>
  <rect id="Rectangle_14" data-name="Rectangle 14" width="25" height="20" rx="3" transform="translate(5 8)" fill="rgba(0,0,0,0)"/>
  <path id="Rectangle_14_-_Outline" data-name="Rectangle 14 - Outline" d="M3-.75H22A3.754,3.754,0,0,1,25.75,3V17A3.754,3.754,0,0,1,22,20.75H3A3.754,3.754,0,0,1-.75,17V3A3.754,3.754,0,0,1,3-.75Zm19,20A2.253,2.253,0,0,0,24.25,17V3A2.253,2.253,0,0,0,22,.75H3A2.253,2.253,0,0,0,.75,3V17A2.253,2.253,0,0,0,3,19.25Z" transform="translate(5 8)"/>
  <path id="Path_18" data-name="Path 18" d="M12.15,20.08l6.97,5.072a2.866,2.866,0,0,0,3.43,0L29.63,20" transform="translate(-3.336 -5.665)" fill="rgba(0,0,0,0)"/>
  <path id="Path_18_-_Outline" data-name="Path 18 - Outline" d="M20.835,26.472a3.634,3.634,0,0,1-2.158-.715l-6.968-5.071a.75.75,0,0,1,.883-1.213l6.97,5.072a2.119,2.119,0,0,0,2.546,0l7.082-5.153a.75.75,0,1,1,.883,1.213l-7.08,5.152A3.632,3.632,0,0,1,20.835,26.472Z" transform="translate(-3.336 -5.665)"/>
</svg>
