<svg xmlns="http://www.w3.org/2000/svg" width="33.497" height="33.498" viewBox="0 0 33.497 33.498">
  <g id="search" transform="translate(0.747 0.746)">
    <path id="Path_22" data-name="Path 22" d="M25.66,35.52A14.24,14.24,0,0,1,22,36a14,14,0,1,1,9.9-4.1" transform="translate(-8 -7.999)" fill="rgba(0,0,0,0)"/>
    <path id="Path_22_-_Outline" data-name="Path 22 - Outline" d="M22,36.75a14.75,14.75,0,1,1,10.43-4.32A.75.75,0,1,1,31.37,31.37,13.25,13.25,0,1,0,22,35.25a13.5,13.5,0,0,0,3.467-.455.75.75,0,1,1,.386,1.449A15,15,0,0,1,22,36.75Z" transform="translate(-8 -7.999)"/>
    <path id="Line_1" data-name="Line 1" d="M8.1,8.85a.748.748,0,0,1-.53-.22L-.53.53A.75.75,0,0,1-.53-.53.75.75,0,0,1,.53-.53l8.1,8.1A.75.75,0,0,1,8.1,8.85Z" transform="translate(23.9 23.901)"/>
  </g>
</svg>
